<mxfile host="app.diagrams.net" modified="2023-05-21T07:34:13.626Z" agent="Mozilla/5.0 (Windows NT 10.0; Win64; x64) AppleWebKit/537.36 (KHTML, like Gecko) Chrome/113.0.0.0 Safari/537.36 Edg/113.0.1774.50" etag="oRjy5O7KCarRxpFW37Jt" version="21.3.2" type="device">
  <diagram id="fH5yLPjcCC4X6XXN7Yjo" name="第 1 页">
    <mxGraphModel dx="2196" dy="1373" grid="1" gridSize="10" guides="1" tooltips="1" connect="1" arrows="1" fold="1" page="0" pageScale="1" pageWidth="827" pageHeight="1169" background="none" math="0" shadow="0">
      <root>
        <mxCell id="0" />
        <mxCell id="1" parent="0" />
        <mxCell id="node1" value="&lt;p style=&quot;margin:0px;margin-top:4px;text-align:center;&quot;&gt;&lt;b&gt;canteen /*餐厅*/&lt;/b&gt;&lt;/p&gt;&lt;hr size=&quot;1&quot;&gt;&lt;p style=&quot;margin:0 0 0 4px;line-height:1.6;&quot;&gt;canteen_id: int(11)&lt;br&gt;&lt;/p&gt;&lt;p style=&quot;margin:0 0 0 4px;line-height:1.6;&quot;&gt; canteen_Name: text&lt;br&gt; image_url: varchar(255)&lt;br&gt; location: varchar(20)&lt;br&gt; vendor_total_count: int(11)&lt;/p&gt;" style="verticalAlign=top;align=left;overflow=fill;fontSize=14;fontFamily=Helvetica;html=1;rounded=0;shadow=0;comic=0;labelBackgroundColor=none;strokeWidth=1;" parent="1" vertex="1">
          <mxGeometry x="-162.5" y="-170" width="175" height="160" as="geometry" />
        </mxCell>
        <mxCell id="node3" value="&lt;p style=&quot;margin:0px;margin-top:4px;text-align:center;&quot;&gt;&lt;b&gt;category  /* 商品分类 */&lt;/b&gt;&lt;/p&gt;&lt;hr size=&quot;1&quot;&gt;&lt;p style=&quot;margin:0 0 0 4px;line-height:1.6;&quot;&gt;category_id : int(11)&lt;br&gt;&lt;/p&gt;&lt;p style=&quot;margin:0 0 0 4px;line-height:1.6;&quot;&gt; category_name : varchar(32)&lt;br&gt; vendor_id&amp;nbsp; int(11)&lt;/p&gt;" style="verticalAlign=top;align=left;overflow=fill;fontSize=14;fontFamily=Helvetica;html=1;rounded=0;shadow=0;comic=0;labelBackgroundColor=none;strokeWidth=1;" parent="1" vertex="1">
          <mxGeometry x="-471.5" y="171" width="200" height="110" as="geometry" />
        </mxCell>
        <mxCell id="node0" value="&lt;p style=&quot;margin:0px;margin-top:4px;text-align:center;&quot;&gt;&lt;b&gt;exp_phone /*手机登录*/&lt;/b&gt;&lt;/p&gt;&lt;hr size=&quot;1&quot;&gt;&lt;p style=&quot;margin:0 0 0 4px;line-height:1.6;&quot;&gt;id: int(11)&lt;br&gt;&lt;/p&gt;&lt;p style=&quot;margin:0 0 0 4px;line-height:1.6;&quot;&gt; phone : varchar(11)&lt;/p&gt;&lt;p style=&quot;margin:0 0 0 4px;line-height:1.6;&quot;&gt;&lt;br&gt;&lt;/p&gt;" style="verticalAlign=top;align=left;overflow=fill;fontSize=14;fontFamily=Helvetica;html=1;rounded=0;shadow=0;comic=0;labelBackgroundColor=none;strokeWidth=1;" parent="1" vertex="1">
          <mxGeometry x="-812.5" y="-740" width="175" height="95" as="geometry" />
        </mxCell>
        <mxCell id="node8" value="&lt;p style=&quot;margin:0px;margin-top:4px;text-align:center;&quot;&gt;&lt;b&gt;order_item  /* 订单项*/&lt;/b&gt;&lt;/p&gt;&lt;hr size=&quot;1&quot;&gt;&lt;p style=&quot;margin:0 0 0 4px;line-height:1.6;&quot;&gt; order_id: varchar(64)&lt;br&gt; product_id : int(11)&lt;br&gt; vendor_id: int(11)&lt;br&gt; buy_counts : int(11)&lt;/p&gt;" style="verticalAlign=top;align=left;overflow=fill;fontSize=14;fontFamily=Helvetica;html=1;rounded=0;shadow=0;comic=0;labelBackgroundColor=none;strokeWidth=1;" parent="1" vertex="1">
          <mxGeometry x="-837.5" y="180" width="225" height="146" as="geometry" />
        </mxCell>
        <mxCell id="node2" value="&lt;p style=&quot;margin:0px;margin-top:4px;text-align:center;&quot;&gt;&lt;b&gt;orders  /* 订单  */&lt;/b&gt;&lt;/p&gt;&lt;hr size=&quot;1&quot;&gt;&lt;p style=&quot;margin:0 0 0 4px;line-height:1.6;&quot;&gt;order_id : varchar(64)&lt;br&gt;&lt;/p&gt;&lt;p style=&quot;margin:0 0 0 4px;line-height:1.6;&quot;&gt; user_id ：int(11)&lt;br&gt; vendor_id: int(11)&lt;br&gt; receiver_name : varchar(32)&lt;br&gt; receiver_QR_code : varchar(128)&lt;br&gt; total_amount : decimal(32,5)&lt;br&gt; actual_amount : int(11)&lt;br&gt; status : varchar(32)&lt;br&gt; delete_status : int(11)&lt;br&gt; create_time : datetime&lt;br&gt; meal_time : datetime&lt;br&gt; finish_time : datetime&lt;br&gt; score: int(11)&lt;/p&gt;" style="verticalAlign=top;align=left;overflow=fill;fontSize=14;fontFamily=Helvetica;html=1;rounded=0;shadow=0;comic=0;labelBackgroundColor=none;strokeWidth=1;" parent="1" vertex="1">
          <mxGeometry x="-840" y="-250" width="230" height="340" as="geometry" />
        </mxCell>
        <mxCell id="node5" value="&lt;p style=&quot;margin:0px;margin-top:4px;text-align:center;&quot;&gt;&lt;b&gt;product  /*商品信息相关表 */&lt;/b&gt;&lt;/p&gt;&lt;hr size=&quot;1&quot;&gt;&lt;p style=&quot;margin:0 0 0 4px;line-height:1.6;&quot;&gt;product_id : int(11)&lt;br&gt;&lt;/p&gt;&lt;p style=&quot;margin:0 0 0 4px;line-height:1.6;&quot;&gt; product_name : varchar(32)&lt;br&gt; category_id : int(11)&lt;br&gt; sold_num : int(11)&lt;br&gt; product_status : int(11)&lt;br&gt; content : text&lt;br&gt; create_time : datetime&lt;br&gt; update_time : datetime&lt;br&gt; stock : int(11)&lt;br&gt; sell_price : double(10,2)&lt;br&gt; product_img: text&lt;br&gt; score: double&lt;/p&gt;&lt;p style=&quot;margin:0 0 0 4px;line-height:1.6;&quot;&gt;&lt;br&gt;&lt;/p&gt;" style="verticalAlign=top;align=left;overflow=fill;fontSize=14;fontFamily=Helvetica;html=1;rounded=0;shadow=0;comic=0;labelBackgroundColor=none;strokeWidth=1;" parent="1" vertex="1">
          <mxGeometry x="-463" y="-237" width="183" height="314" as="geometry" />
        </mxCell>
        <mxCell id="node4" value="&lt;p style=&quot;margin:0px;margin-top:4px;text-align:center;&quot;&gt;&lt;b&gt;product_comments  /* 商品评价  */&lt;/b&gt;&lt;/p&gt;&lt;hr size=&quot;1&quot;&gt;&lt;p style=&quot;margin:0 0 0 4px;line-height:1.6;&quot;&gt;comm_id : int(11)&lt;br&gt;&lt;/p&gt;&lt;p style=&quot;margin:0 0 0 4px;line-height:1.6;&quot;&gt; vendor_id : varchar(64)&lt;br&gt; order_id /: varchar(64)&lt;br&gt; user_id : varchar(64)&lt;br&gt; score : tinyint(4)&lt;br&gt; comm_content : varchar(128)&lt;br&gt; comm_imgs : text&lt;br&gt; comm_time : datetime&lt;br&gt; is_show : int(11)&lt;/p&gt;&lt;p style=&quot;margin:0 0 0 4px;line-height:1.6;&quot;&gt;&lt;br&gt;&lt;/p&gt;" style="verticalAlign=top;align=left;overflow=fill;fontSize=14;fontFamily=Helvetica;html=1;rounded=0;shadow=0;comic=0;labelBackgroundColor=none;strokeWidth=1;" parent="1" vertex="1">
          <mxGeometry x="-483" y="-580" width="223" height="256" as="geometry" />
        </mxCell>
        <mxCell id="node7" value="&lt;p style=&quot;margin:0px;margin-top:4px;text-align:center;&quot;&gt;&lt;b&gt;users  /* 用户  */&lt;/b&gt;&lt;/p&gt;&lt;hr size=&quot;1&quot;&gt;&lt;p style=&quot;margin:0 0 0 4px;line-height:1.6;&quot;&gt;user_id: int(64)&lt;br&gt;&lt;/p&gt;&lt;p style=&quot;margin:0 0 0 4px;line-height:1.6;&quot;&gt; username : varchar(32)&lt;br&gt; password : varchar(64)&lt;br&gt; user_mobile : varchar(32)&lt;br&gt; user_email : varchar(32)&lt;br&gt; user_sex : char(1)&lt;br&gt; user_birth : date&lt;br&gt; vendor_id : int(2)&lt;/p&gt;&lt;p style=&quot;margin:0 0 0 4px;line-height:1.6;&quot;&gt;&lt;br&gt;&lt;/p&gt;" style="verticalAlign=top;align=left;overflow=fill;fontSize=14;fontFamily=Helvetica;html=1;rounded=0;shadow=0;comic=0;labelBackgroundColor=none;strokeWidth=1;" parent="1" vertex="1">
          <mxGeometry x="-815" y="-562" width="180" height="220" as="geometry" />
        </mxCell>
        <mxCell id="node6" value="&lt;p style=&quot;margin:0px;margin-top:4px;text-align:center;&quot;&gt;&lt;b&gt;vendor /*店家*/&lt;/b&gt;&lt;/p&gt;&lt;hr size=&quot;1&quot;&gt;vendor_id: int(11)&lt;p style=&quot;margin:0 0 0 4px;line-height:1.6;&quot;&gt;canteen_id: int(11)&lt;br&gt;&lt;/p&gt;&lt;p style=&quot;margin:0 0 0 4px;line-height:1.6;&quot;&gt; vendor_name: varchar(100)&lt;br&gt; score: double(3,1)&lt;br&gt; in_business : tinyint(1)&lt;br&gt; total_sold: int(11)&lt;br&gt; average_price: double(10,2)&lt;br&gt; announcement : varchar(100)&lt;br&gt; vendor_img: text&lt;/p&gt;" style="verticalAlign=top;align=left;overflow=fill;fontSize=14;fontFamily=Helvetica;html=1;rounded=0;shadow=0;comic=0;labelBackgroundColor=none;strokeWidth=1;" parent="1" vertex="1">
          <mxGeometry x="-180" y="106" width="210" height="240" as="geometry" />
        </mxCell>
        <mxCell id="F-AaCXNn75EQvuYhSON_-1" value="Extends" style="endArrow=block;endSize=16;endFill=0;html=1;rounded=0;entryX=0.5;entryY=1;entryDx=0;entryDy=0;" parent="1" source="node8" target="node2" edge="1">
          <mxGeometry width="160" relative="1" as="geometry">
            <mxPoint x="-690" y="280" as="sourcePoint" />
            <mxPoint x="-670" y="200" as="targetPoint" />
          </mxGeometry>
        </mxCell>
        <mxCell id="F-AaCXNn75EQvuYhSON_-2" value="" style="endArrow=none;html=1;rounded=0;entryX=0;entryY=0.5;entryDx=0;entryDy=0;exitX=1;exitY=0.5;exitDx=0;exitDy=0;" parent="1" source="node2" target="node5" edge="1">
          <mxGeometry width="50" height="50" relative="1" as="geometry">
            <mxPoint x="-560" y="120" as="sourcePoint" />
            <mxPoint x="-510" y="70" as="targetPoint" />
          </mxGeometry>
        </mxCell>
        <mxCell id="F-AaCXNn75EQvuYhSON_-5" value="Use" style="endArrow=open;endSize=12;dashed=1;html=1;rounded=0;exitX=0.5;exitY=0;exitDx=0;exitDy=0;entryX=0.5;entryY=1;entryDx=0;entryDy=0;" parent="1" source="node5" target="node4" edge="1">
          <mxGeometry x="0.012" width="160" relative="1" as="geometry">
            <mxPoint x="-790" y="-480" as="sourcePoint" />
            <mxPoint x="-630" y="-480" as="targetPoint" />
            <mxPoint as="offset" />
          </mxGeometry>
        </mxCell>
        <mxCell id="F-AaCXNn75EQvuYhSON_-8" value="" style="endArrow=none;html=1;rounded=0;entryX=0.5;entryY=0;entryDx=0;entryDy=0;exitX=0.5;exitY=1;exitDx=0;exitDy=0;" parent="1" source="node5" target="node3" edge="1">
          <mxGeometry width="50" height="50" relative="1" as="geometry">
            <mxPoint x="-580" y="230" as="sourcePoint" />
            <mxPoint x="-530" y="180" as="targetPoint" />
          </mxGeometry>
        </mxCell>
        <mxCell id="F-AaCXNn75EQvuYhSON_-10" value="Use" style="endArrow=open;endSize=12;dashed=1;html=1;rounded=0;exitX=0.5;exitY=0;exitDx=0;exitDy=0;entryX=0.5;entryY=1;entryDx=0;entryDy=0;" parent="1" source="node7" target="node0" edge="1">
          <mxGeometry x="0.012" width="160" relative="1" as="geometry">
            <mxPoint x="-725.53" y="-595" as="sourcePoint" />
            <mxPoint x="-690" y="-640" as="targetPoint" />
            <mxPoint as="offset" />
          </mxGeometry>
        </mxCell>
        <mxCell id="F-AaCXNn75EQvuYhSON_-11" value="" style="endArrow=none;html=1;rounded=0;entryX=0.5;entryY=0;entryDx=0;entryDy=0;exitX=0.5;exitY=1;exitDx=0;exitDy=0;" parent="1" source="node7" target="node2" edge="1">
          <mxGeometry width="50" height="50" relative="1" as="geometry">
            <mxPoint x="-930" y="-240" as="sourcePoint" />
            <mxPoint x="-880" y="-290" as="targetPoint" />
          </mxGeometry>
        </mxCell>
        <mxCell id="F-AaCXNn75EQvuYhSON_-12" value="" style="endArrow=none;html=1;rounded=0;entryX=0;entryY=0.5;entryDx=0;entryDy=0;exitX=1;exitY=0.5;exitDx=0;exitDy=0;" parent="1" source="node7" target="node4" edge="1">
          <mxGeometry width="50" height="50" relative="1" as="geometry">
            <mxPoint x="-600" y="-400" as="sourcePoint" />
            <mxPoint x="-550" y="-450" as="targetPoint" />
          </mxGeometry>
        </mxCell>
        <mxCell id="F-AaCXNn75EQvuYhSON_-13" value="" style="endArrow=none;html=1;rounded=0;entryX=0;entryY=0.5;entryDx=0;entryDy=0;exitX=1;exitY=0.5;exitDx=0;exitDy=0;" parent="1" source="node3" target="node6" edge="1">
          <mxGeometry width="50" height="50" relative="1" as="geometry">
            <mxPoint x="-380" y="370" as="sourcePoint" />
            <mxPoint x="-330" y="320" as="targetPoint" />
          </mxGeometry>
        </mxCell>
        <mxCell id="F-AaCXNn75EQvuYhSON_-14" value="" style="endArrow=none;html=1;rounded=0;entryX=0.5;entryY=0;entryDx=0;entryDy=0;exitX=0.5;exitY=1;exitDx=0;exitDy=0;" parent="1" source="node1" target="node6" edge="1">
          <mxGeometry width="50" height="50" relative="1" as="geometry">
            <mxPoint x="-230" y="90" as="sourcePoint" />
            <mxPoint x="-180" y="40" as="targetPoint" />
          </mxGeometry>
        </mxCell>
        <mxCell id="eKJ3jU2d0kADuzztPyA--1" value="1" style="text;html=1;align=center;verticalAlign=middle;resizable=0;points=[];autosize=1;strokeColor=none;fillColor=none;" vertex="1" parent="1">
          <mxGeometry x="-105" y="-12" width="30" height="30" as="geometry" />
        </mxCell>
        <mxCell id="eKJ3jU2d0kADuzztPyA--3" value="&lt;font style=&quot;font-size: 18px;&quot;&gt;*&lt;/font&gt;" style="text;html=1;align=center;verticalAlign=middle;resizable=0;points=[];autosize=1;strokeColor=none;fillColor=none;" vertex="1" parent="1">
          <mxGeometry x="-105" y="71" width="30" height="40" as="geometry" />
        </mxCell>
        <mxCell id="eKJ3jU2d0kADuzztPyA--4" value="1" style="text;html=1;align=center;verticalAlign=middle;resizable=0;points=[];autosize=1;strokeColor=none;fillColor=none;" vertex="1" parent="1">
          <mxGeometry x="-210" y="200" width="30" height="30" as="geometry" />
        </mxCell>
        <mxCell id="eKJ3jU2d0kADuzztPyA--5" value="&lt;font style=&quot;font-size: 18px;&quot;&gt;*&lt;/font&gt;" style="text;html=1;align=center;verticalAlign=middle;resizable=0;points=[];autosize=1;strokeColor=none;fillColor=none;" vertex="1" parent="1">
          <mxGeometry x="-271.5" y="195" width="30" height="40" as="geometry" />
        </mxCell>
        <mxCell id="eKJ3jU2d0kADuzztPyA--6" value="&lt;font style=&quot;font-size: 18px;&quot;&gt;*&lt;/font&gt;" style="text;html=1;align=center;verticalAlign=middle;resizable=0;points=[];autosize=1;strokeColor=none;fillColor=none;" vertex="1" parent="1">
          <mxGeometry x="-370" y="77" width="30" height="40" as="geometry" />
        </mxCell>
        <mxCell id="eKJ3jU2d0kADuzztPyA--7" value="1" style="text;html=1;align=center;verticalAlign=middle;resizable=0;points=[];autosize=1;strokeColor=none;fillColor=none;" vertex="1" parent="1">
          <mxGeometry x="-370" y="141" width="30" height="30" as="geometry" />
        </mxCell>
        <mxCell id="eKJ3jU2d0kADuzztPyA--8" value="1" style="text;html=1;align=center;verticalAlign=middle;resizable=0;points=[];autosize=1;strokeColor=none;fillColor=none;" vertex="1" parent="1">
          <mxGeometry x="-493" y="-110" width="30" height="30" as="geometry" />
        </mxCell>
        <mxCell id="eKJ3jU2d0kADuzztPyA--9" value="&lt;font style=&quot;font-size: 18px;&quot;&gt;*&lt;/font&gt;" style="text;html=1;align=center;verticalAlign=middle;resizable=0;points=[];autosize=1;strokeColor=none;fillColor=none;" vertex="1" parent="1">
          <mxGeometry x="-612.5" y="-110" width="30" height="40" as="geometry" />
        </mxCell>
        <mxCell id="eKJ3jU2d0kADuzztPyA--10" value="1" style="text;html=1;align=center;verticalAlign=middle;resizable=0;points=[];autosize=1;strokeColor=none;fillColor=none;" vertex="1" parent="1">
          <mxGeometry x="-730" y="-342" width="30" height="30" as="geometry" />
        </mxCell>
        <mxCell id="eKJ3jU2d0kADuzztPyA--11" value="&lt;font style=&quot;font-size: 18px;&quot;&gt;*&lt;/font&gt;" style="text;html=1;align=center;verticalAlign=middle;resizable=0;points=[];autosize=1;strokeColor=none;fillColor=none;" vertex="1" parent="1">
          <mxGeometry x="-730" y="-277" width="30" height="40" as="geometry" />
        </mxCell>
        <mxCell id="eKJ3jU2d0kADuzztPyA--12" value="1" style="text;html=1;align=center;verticalAlign=middle;resizable=0;points=[];autosize=1;strokeColor=none;fillColor=none;" vertex="1" parent="1">
          <mxGeometry x="-637.5" y="-480" width="30" height="30" as="geometry" />
        </mxCell>
        <mxCell id="eKJ3jU2d0kADuzztPyA--13" value="&lt;font style=&quot;font-size: 18px;&quot;&gt;*&lt;/font&gt;" style="text;html=1;align=center;verticalAlign=middle;resizable=0;points=[];autosize=1;strokeColor=none;fillColor=none;" vertex="1" parent="1">
          <mxGeometry x="-513" y="-480" width="30" height="40" as="geometry" />
        </mxCell>
      </root>
    </mxGraphModel>
  </diagram>
</mxfile>
